<svg width="512" height="512" viewBox="-130 -130 260 260" xmlns="http://www.w3.org/2000/svg">
  <!-- Background -->
  <circle cx="0" cy="0" r="125" fill="#0B1120"/>
  <!-- Outer ring -->
  <circle cx="0" cy="0" r="120" fill="none" stroke="#1E2D4A" stroke-width="2"/>
  <!-- Horus reticle — thicker for favicon clarity -->
  <line x1="-120" y1="0" x2="-40" y2="0" stroke="#1E2D4A" stroke-width="2"/>
  <line x1="40" y1="0" x2="120" y2="0" stroke="#1E2D4A" stroke-width="2"/>
  <line x1="0" y1="-120" x2="0" y2="-40" stroke="#1E2D4A" stroke-width="2"/>
  <line x1="0" y1="40" x2="0" y2="120" stroke="#1E2D4A" stroke-width="2"/>
  <!-- Christmas tree — slightly bolder -->
  <line x1="-10" y1="55" x2="10" y2="55" stroke="#1E2D4A" stroke-width="1.2"/>
  <line x1="-14" y1="70" x2="14" y2="70" stroke="#1E2D4A" stroke-width="1.2"/>
  <line x1="-18" y1="85" x2="18" y2="85" stroke="#1E2D4A" stroke-width="1.2"/>
  <!-- Windage dots — slightly larger -->
  <circle cx="-55" cy="0" r="2.5" fill="#1E2D4A"/>
  <circle cx="-75" cy="0" r="2.5" fill="#1E2D4A"/>
  <circle cx="55" cy="0" r="2.5" fill="#1E2D4A"/>
  <circle cx="75" cy="0" r="2.5" fill="#1E2D4A"/>
  <!-- Block cipher grid — slightly larger cells for favicon readability -->
  <rect x="-28" y="-28" width="12" height="12" rx="1.5" fill="#E8922A" opacity="0.9"/>
  <rect x="-14" y="-28" width="12" height="12" rx="1.5" fill="#E8922A" opacity="0.3"/>
  <rect x="0" y="-28" width="12" height="12" rx="1.5" fill="#E8922A" opacity="0.7"/>
  <rect x="14" y="-28" width="12" height="12" rx="1.5" fill="#E8922A" opacity="0.2"/>
  <rect x="-28" y="-14" width="12" height="12" rx="1.5" fill="#E8922A" opacity="0.2"/>
  <rect x="-14" y="-14" width="12" height="12" rx="1.5" fill="#E8922A" opacity="0.8"/>
  <rect x="0" y="-14" width="12" height="12" rx="1.5" fill="#E8922A" opacity="0.2"/>
  <rect x="14" y="-14" width="12" height="12" rx="1.5" fill="#E8922A" opacity="0.6"/>
  <rect x="-28" y="0" width="12" height="12" rx="1.5" fill="#E8922A" opacity="0.5"/>
  <rect x="-14" y="0" width="12" height="12" rx="1.5" fill="#E8922A" opacity="0.2"/>
  <rect x="0" y="0" width="12" height="12" rx="1.5" fill="#C43C2E" opacity="0.9"/>
  <rect x="14" y="0" width="12" height="12" rx="1.5" fill="#E8922A" opacity="0.4"/>
  <rect x="-28" y="14" width="12" height="12" rx="1.5" fill="#E8922A" opacity="0.3"/>
  <rect x="-14" y="14" width="12" height="12" rx="1.5" fill="#E8922A" opacity="0.6"/>
  <rect x="0" y="14" width="12" height="12" rx="1.5" fill="#E8922A" opacity="0.2"/>
  <rect x="14" y="14" width="12" height="12" rx="1.5" fill="#E8922A" opacity="0.8"/>
</svg>
