<svg width="512" height="512" viewBox="-130 -130 260 260" xmlns="http://www.w3.org/2000/svg">
  <circle cx="0" cy="0" r="120" fill="#0B1120" stroke="#1E2D4A" stroke-width="1.5"/>
  <circle cx="0" cy="0" r="106" fill="none" stroke="#1E2D4A" stroke-width="0.5"/>
  <!-- Horus reticle -->
  <line x1="-120" y1="0" x2="-38" y2="0" stroke="#1E2D4A" stroke-width="1"/>
  <line x1="38" y1="0" x2="120" y2="0" stroke="#1E2D4A" stroke-width="1"/>
  <line x1="0" y1="-120" x2="0" y2="-38" stroke="#1E2D4A" stroke-width="1"/>
  <line x1="0" y1="38" x2="0" y2="120" stroke="#1E2D4A" stroke-width="1"/>
  <!-- Christmas tree hash marks -->
  <line x1="-8" y1="52" x2="8" y2="52" stroke="#1E2D4A" stroke-width="0.6"/>
  <line x1="-12" y1="65" x2="12" y2="65" stroke="#1E2D4A" stroke-width="0.6"/>
  <line x1="-16" y1="78" x2="16" y2="78" stroke="#1E2D4A" stroke-width="0.6"/>
  <line x1="-20" y1="91" x2="20" y2="91" stroke="#1E2D4A" stroke-width="0.6"/>
  <!-- Windage dots -->
  <circle cx="-50" cy="0" r="1.5" fill="#1E2D4A"/>
  <circle cx="-70" cy="0" r="1.5" fill="#1E2D4A"/>
  <circle cx="50" cy="0" r="1.5" fill="#1E2D4A"/>
  <circle cx="70" cy="0" r="1.5" fill="#1E2D4A"/>
  <!-- Cipher rotor -->
  <circle cx="0" cy="0" r="34" fill="none" stroke="#E8922A" stroke-width="1.2"/>
  <circle cx="0" cy="0" r="22" fill="none" stroke="#E8922A" stroke-width="0.8" opacity="0.5"/>
  <line x1="0" y1="-34" x2="0" y2="-29" stroke="#E8922A" stroke-width="0.8"/>
  <line x1="17" y1="-29.4" x2="14.5" y2="-25.1" stroke="#E8922A" stroke-width="0.8"/>
  <line x1="29.4" y1="-17" x2="25.1" y2="-14.5" stroke="#E8922A" stroke-width="0.8"/>
  <line x1="34" y1="0" x2="29" y2="0" stroke="#E8922A" stroke-width="0.8"/>
  <line x1="29.4" y1="17" x2="25.1" y2="14.5" stroke="#E8922A" stroke-width="0.8"/>
  <line x1="17" y1="29.4" x2="14.5" y2="25.1" stroke="#E8922A" stroke-width="0.8"/>
  <line x1="0" y1="34" x2="0" y2="29" stroke="#E8922A" stroke-width="0.8"/>
  <line x1="-17" y1="29.4" x2="-14.5" y2="25.1" stroke="#E8922A" stroke-width="0.8"/>
  <line x1="-29.4" y1="17" x2="-25.1" y2="14.5" stroke="#E8922A" stroke-width="0.8"/>
  <line x1="-34" y1="0" x2="-29" y2="0" stroke="#E8922A" stroke-width="0.8"/>
  <line x1="-29.4" y1="-17" x2="-25.1" y2="-14.5" stroke="#E8922A" stroke-width="0.8"/>
  <line x1="-17" y1="-29.4" x2="-14.5" y2="-25.1" stroke="#E8922A" stroke-width="0.8"/>
  <circle cx="0" cy="0" r="3" fill="#E8922A"/>
</svg>
